<svg id="Layer_3" data-name="Layer 3" xmlns="http://www.w3.org/2000/svg" viewBox="0 0 1000 1000"><defs><style>.cls-1{fill:#231f20;}</style></defs><title>DRAGON</title><path class="cls-1" d="M463.24,444.6c9.59-4.37,22.2-1.05,32.18.2l36.26,4.53c4,.5,7.5-3.81,7.5-7.5,0-4.47-3.46-7-7.5-7.5l-40.18-5c-12.36-1.54-24.15-3-35.83,2.34-3.72,1.69-4.55,7-2.69,10.26,2.17,3.81,6.6,4.36,10.26,2.69Z"/><path class="cls-1" d="M527.1,438.05l-41.16,58.66c-5.56,7.92,7.44,15.42,12.95,7.57l41.17-58.66c5.55-7.92-7.45-15.42-13-7.57Z"/><path class="cls-1" d="M498.89,496.71c-4.7-6.4-9.1-13.6-9.8-21.69-.82-9.55-15.83-9.63-15,0,.94,10.88,5.43,20.53,11.85,29.26,2.42,3.29,6.48,4.84,10.26,2.69,3.24-1.84,5.08-7,2.69-10.26Z"/><path class="cls-1" d="M454.15,443.43c4,4.07,6.08,9.74,10.18,13.93,6.76,6.91,17.36-3.7,10.6-10.6-4-4.07-6.07-9.74-10.17-13.94-6.77-6.91-17.37,3.7-10.61,10.61Z"/><path class="cls-1" d="M465.85,445.58c-12.27,7.85-26-1.83-32.48-12.47C425.73,420.66,422,405.6,419,391.45c-6.47-29.9-7.92-60.59-12.48-90.8-4.62-30.6-13.18-60.43-31.34-85.9-9.5-13.32-20.08-25.93-30.35-38.66s-20.57-25.21-31.32-37.43c-23.93-27.18-50-52.51-79.71-73.28-4.73-3.3-11.36,1.11-11.29,6.47.23,15.68.44,34.58-9.72,47.62-11.42,14.64-32.22,14.15-49,13.84-4.5-.08-9,4.92-7.24,9.49,12.43,32.11,6.11,70-17.09,95.7a7.59,7.59,0,0,0,5.31,12.8c17.71.56,31.61,15.57,37.21,31.45,7.92,22.42,2.52,47.1-2.17,69.6-.9,4.3,2.06,10,7.23,9.5a249,249,0,0,1,51.06-.06c15.57,1.62,32.52,4.19,46.87,10.76s22.37,18.31,30.18,31.39c8.3,13.89,16.77,27.87,23,42.84,5.55,13.27,13.35,32.65,3.38,45.61l10.26-2.69c-18.9-9.36-40.63-7.95-59.41,1.05-17.94,8.59-31.77,23.77-42.85,39.94-5.47,8,7.53,15.49,13,7.57,17.3-25.25,49.57-51.52,81.73-35.61,4,2,7.64.72,10.26-2.69,10.2-13.26,7-31.57,2.17-46.28-5.61-17.24-14.35-33.25-23.51-48.81-8.73-14.82-17.25-30.46-31.82-40.34s-33-13.46-50-16A255.14,255.14,0,0,0,187,346.85l7.23,9.49c5.54-26.57,11.43-55.8.51-81.83-8.62-20.56-26.91-37.48-50-38.21l5.3,12.8c26.56-29.41,35.32-73.15,21-110.29l-7.23,9.5c21,.39,45-.67,59.57-18.23,13.35-16.11,14.42-38.23,14.12-58.23L226.2,78.33c27,18.85,50.71,41.9,72.63,66.38,11.23,12.56,22,25.51,32.63,38.6s21.55,26,31.26,39.76c37.3,52.78,28.64,120.4,43.64,180.35,4.12,16.45,9.52,34.35,21.42,46.95,11.46,12.14,30.84,17.63,45.64,8.17,8.11-5.19.59-18.18-7.57-13Z"/><path class="cls-1" d="M477.81,468.54c-30.31,22.29-39,62.69-29.22,97.78,11.35,40.74,42.24,71.41,72.56,99.07,15.36,14,33.86,27.74,44.06,46.21,10,18,12.61,39.6,15.14,59.73a651.38,651.38,0,0,1,5,70.19c.34,20.62,1.42,43.23-6.59,62.69-.61,1.5-3.93,6-3.69,7.33l4.25-.32-.56-.58a28.56,28.56,0,0,0-2-3.59,58.11,58.11,0,0,0-8.92-12.16c-7-7.18-16.59-12.31-26.82-11.92-11.56.44-21.69,7.15-29.6,15.13-7.64,7.72-13.65,17.29-22.65,23.57l11,4.48c-7.94-24.31-16.71-51-36.63-68.33-18.19-15.83-44.94-23.21-67-11.07l11.28,6.47a186.39,186.39,0,0,0-8.71-65.53,189.67,189.67,0,0,0-13.14-31c-2.39-4.46-5.86-8.73-7.87-13.33-1.55-3.53,4.31-9.16,6.23-12.29a158.55,158.55,0,0,0,17.23-124.7,161.23,161.23,0,0,0-34.28-62.52c-3.24-3.67-9.45-2.42-11.78,1.52-14.2,24.06-44.47,36.15-71.34,28.59-9.3-2.62-13.28,11.85-4,14.47,33.27,9.36,70.71-5.73,88.27-35.49l-11.78,1.52c27,30.66,40.05,72.54,34.59,113.11a144.84,144.84,0,0,1-21.68,58.8c-2.57,4-5.85,7.81-6.86,12.56-1.2,5.62,1.4,10.31,4.27,14.92A169.89,169.89,0,0,1,381,782.77a174.6,174.6,0,0,1,11.31,70.45c-.26,5.87,6.52,9.1,11.29,6.48,17.34-9.53,39-1.35,52.07,11.74,15.76,15.75,22.8,38,29.55,58.7,1.39,4.26,6.84,7.39,11,4.48,8.17-5.7,14.28-13.1,20.76-20.54,5.92-6.79,13.29-14.84,22.77-16,8.1-1,15.26,4.35,20,10.42,5.07,6.51,8.12,17.82,18.35,17.34,10-.47,14.27-14.56,16.77-22.37,3.15-9.84,4.44-20.28,5.05-30.57,1.32-22.73.37-45.77-1.31-68.45-1.66-22.35-3.92-45-8.64-67-4.43-20.64-12.9-38.89-27.72-54.11-29.6-30.4-65.48-55.18-87.08-92.6-10.47-18.15-17-38.7-15.33-59.81,1.52-18.8,10-38,25.5-49.42,3.28-2.41,4.84-6.47,2.69-10.26-1.85-3.24-7-5.08-10.26-2.69Z"/><path class="cls-1" d="M249.48,528.25a78.76,78.76,0,0,1-28.24,30.66c-11.87,7.38-28.36,13.81-42.53,10.89-14.36-2.95-21.57-18.4-24.82-31.31-3.57-14.21-2.3-29.26,6.38-41.37,4.51-6.29-4.15-13.9-10.26-10.26-15.46,9.21-24,26.52-31.87,42-8.76,17.39-15.63,35.88-16.73,55.48-1,18.22,3.56,36.68,14.58,51.38,10.23,13.66,24.27,23.94,39.9,30.64,20.38,8.75,42.35,11.8,64.3,13.63,7.47.62,10.13-10.6,3.78-14a87.47,87.47,0,0,1-44.21-58l-11,8.47c17.4,11.61,39.32,5.6,55.91-4.34s35.26-28.26,56.54-23.22c9.38,2.23,13.39-12.23,4-14.46-21.66-5.13-40.62,6.46-57.85,18.09-14.3,9.66-34.11,22.26-51,11-5.75-3.84-12.37,2.48-11,8.47a102.06,102.06,0,0,0,51.1,67l3.79-14c-31.23-2.6-65.19-8.42-87.52-32.51-23.37-25.23-18.09-60.85-4.69-89.62a275,275,0,0,1,13-24.59c4.31-7.25,9.21-14.13,16.57-18.51l-10.26-10.26c-16.61,23.17-12.1,58.32,5,80,19.63,24.95,56,16.06,79,.67a94,94,0,0,0,31.12-34.42c4.46-8.55-8.48-16.15-13-7.58Z"/><path class="cls-1" d="M507.85,434.83c11.88-20.56,33.84-35.46,57.7-37.6,14.32-1.28,28.76,1.38,42.69-3.34a62.85,62.85,0,0,0,31-23.17l-14-3.78c1.63,25-17.71,50.05-43.11,52.87-3.7.41-6.89,2.53-7.36,6.5-.42,3.51,1.67,7.42,5.37,8.23,29.77,6.47,62.3,11.64,88-8.8l-12.53-7.3c-6.17,20.38-22.39,37.56-42.62,44.47-12.34,4.21-25.6,3.63-38,7.42-11.74,3.58-21.33,10.75-26.14,22.19l9.23-5.24a87.22,87.22,0,0,1-34.16-12.73c-8.16-5.2-15.7,7.77-7.57,12.95A97.73,97.73,0,0,0,554,501.75c4.43.67,7.49-1.11,9.23-5.24,4.54-10.81,19.46-13.11,29.5-14.47,12.41-1.69,24-3.65,35.27-9.35a84.06,84.06,0,0,0,42-50.26c2.38-7.83-7.12-11.6-12.53-7.3-20.67,16.46-50,10-73.38,4.95l-2,14.73c33.13-3.68,60.31-34.07,58.11-67.87-.5-7.72-9.61-9.82-14-3.79a46.08,46.08,0,0,1-30.06,18.3c-7.84,1.21-15.89.35-23.78.46a92.83,92.83,0,0,0-19.16,2.22,91.63,91.63,0,0,0-58.33,43.13c-4.84,8.37,8.12,15.93,13,7.57Z"/><path class="cls-1" d="M636.37,390.06c37.64-4.3,70.36-31.24,80.84-67.86l-14.46-4c-2.06,11.4-3.42,23.92,5,33.25,7.89,8.77,19.38,8.33,28.68,2.09,10.1-6.78,19.6-14.66,29.2-22.11q15.4-12,30.5-24.37l-11.78-1.51c6.46,11.31,19.23,16.53,31.87,16.51,15.23,0,28.61-8,42.13-13.95,5.45-2.41,12.39-5.35,18.47-3.84,5.56,1.39,7,6.63,7,11.76,0,6.08-1.62,12.2-3.55,17.92-1.2,3.58-3.55,10.51-8,11.17-5.22.78-11.39-6.62-15.37-9.14a41.53,41.53,0,0,0-20.43-6.13c-15.42-.62-27,7.84-37.26,18.39-5,5.15-9.93,10-16.19,13.59a88.61,88.61,0,0,1-20,8.07c-13.84,4-28.16,6.1-41.78,10.82-14.67,5.08-28.42,12.83-37.46,25.79-5,7.19-7.75,15.62-12.18,23.13-3.21,5.45-9.38,12.72-16.58,11.51-9.44-1.58-13.5,12.87-4,14.47,17,2.86,29.27-9.47,36.3-23.61,3.36-6.75,6.06-14.14,11-20a52.11,52.11,0,0,1,16.75-12.64c27.63-13.91,61-11.18,85.73-31.8,11.23-9.36,19.29-23.45,35.72-22.76,14.7.62,22.89,17.28,38.07,15,14.48-2.16,20.14-18.86,22.77-31.25,2.83-13.29,2.36-29.67-11.31-36.84-16.57-8.68-35.17,3.87-50.08,10.31-11.58,5-30.72,9.57-38.53-4.09-2.59-4.53-8.13-4.51-11.78-1.52q-22.08,18.11-44.85,35.35c-3.47,2.62-6.91,5.3-10.46,7.82-2.47,1.76-6,4.8-9.26,3.42-7.32-3.14-4.73-15.12-3.7-20.86,1.69-9.36-11.76-13.42-14.46-4-8.49,29.67-35.5,53.32-66.38,56.85-4,.45-7.5,3.11-7.5,7.5,0,3.69,3.45,8,7.5,7.5Z"/><path class="cls-1" d="M822.56,292c9.65,0,9.67-15,0-15s-9.66,15,0,15Z"/></svg>