<svg id="Layer_1" data-name="Layer 1" xmlns="http://www.w3.org/2000/svg" viewBox="0 0 1000 1000"><defs><style>.cls-1{fill:#231f20;}</style></defs><title>LOGIN-01</title><path class="cls-1" d="M30.87,883.66l95.06-12.86c30.79-4.17,61-8.86,92-11.29,30-2.36,59.73-1.75,88.84,4,30.13,6,59.62,14.56,90.1,18.79C519.75,899.38,641.16,867,763.44,860a878.9,878.9,0,0,1,205.69,12.36c7.69,1.39,16.54-2.09,18.45-10.47,1.67-7.34-2.22-17-10.47-18.46A913.47,913.47,0,0,0,786.81,829c-61.81,1.89-123,11.16-184.26,18.7-60.54,7.45-121.85,13.24-182.8,7.39C390.27,852.24,361,845,331.64,838.25c-31.09-7.1-62.25-11-94.18-9.89-36.07,1.32-71.89,7.07-107.62,11.9L22.89,854.73c-8,1.09-12.41,11.39-10.47,18.45,2.38,8.67,10.39,11.57,18.45,10.48Z"/><path class="cls-1" d="M173.79,828.4c3.73,1.47-4.4-3.11-1.14-.56a38.47,38.47,0,0,1-3.62-3.49c-2.74-2.8.91,1.49-.38-.5-.47-.72-1-1.44-1.39-2.19-.56-.94-1.09-1.9-1.58-2.88-.3-.59-1.81-4.17-.69-1.32-3.22-8.16-4.86-16.79-6.37-25.39l-2.84-16.16c-.56-3.17-1.15-6.33-1.67-9.51,0,0-.36-2.86-.19-1.19-.39-3.75.37-.66-.74-.08,2.37-1.23-.25-1.35-.09-.19L154,764c-1.11.8-1.21.91-.32.33.65-.38,3.3-1.45.79-.56.88-.31,1.78-.54,2.68-.78,2.66-.71,1.17-.17.53-.12,1.2-.1,2.41-.11,3.62-.12,3.33,0,6.66.28,10,.42,12.14.48,23.28-2.94,34.88-5.91,10.33-2.65,21.1-2.46,31.54-.56a310.64,310.64,0,0,1,31.37,7.57c2.5.73,5,1.52,7.44,2.41,1,.35,1.95.71,2.9,1.11-1.93-.81.42.21.67.34a74.83,74.83,0,0,1,6.67,3.7c.84.55,1.72,1.12,2.5,1.74-1.85-1.47,1.62,1.64,1.6,1.62.72.71,1.39,1.46,2.07,2.22,2.65,2.93-.75-1.71,1.19,1.67.49.84,1,1.65,1.5,2.5.23.42,2,4,1,1.66a47.8,47.8,0,0,1,2.43,7.67c.29,1.21.5,2.43.77,3.64.71,3.1,0-1.52.32,2,1,10.75.36,21.49-.62,32.22-.72,7.84,7.41,15.34,15,15,8.73-.39,14.23-6.61,15-15,2.21-24.19,2.37-50.26-13.48-70.24s-44.67-25.76-68.42-30.37c-15.31-3-30.56-4-45.9-.65-5.86,1.3-11.57,3.23-17.42,4.59-6.28,1.47-12,1.06-19.34.77-13.8-.54-29.53,3.11-37,16-7.72,13.23-2,29.58.43,43.6,4.57,26,10.11,54.14,37.47,64.89,7.32,2.88,16.78-3.15,18.45-10.47,2-8.63-2.64-15.38-10.48-18.46Z"/><path class="cls-1" d="M159,731.94a118.42,118.42,0,0,1-4.7-20.05,107.73,107.73,0,0,1-.72-11.35c0-1.81,0-3.64.06-5.46.19-3.37.31-1.16-.19-.43-1.2,1.77,1.34-1.21,1.77-1.58-1.68,1.42,1.77-1.28,2.11-1.52a90,90,0,0,1,8.33-5.49,19.29,19.29,0,0,1,6.91-2.78c1.73-.42,3.17-.18,5.72.51,6.44,1.73,12.45,4.71,19.07,5.79,7.06,1.15,13.56.13,20.6.18,1.12.07,1,0-.5-.19,1.49.45,1.75.47.77.08-.57-.48-1.68-2-2.12-2.31-.29-1-.19-.7.29.83a18.81,18.81,0,0,1,.49,2.1c.2,1.09.2,1,0-.43.12,1,.22,1.93.31,2.9a150.91,150.91,0,0,1,.38,24.24c-.48,7.85,7.25,15.35,15,15,8.54-.38,14.49-6.6,15-15,1.16-18.89,2.42-48-19.57-55.57-8.17-2.81-15.94-.58-24.21-1,1.24.3.94.25-.91-.14-1.08-.24-2.15-.52-3.2-.84-2.14-.63-4.23-1.42-6.33-2.17a63.6,63.6,0,0,0-13.13-3.49c-10.59-1.43-20.49,1.2-29.73,6.43-7.86,4.45-17.19,10.4-22.13,18.06-5.63,8.72-5.24,19.93-4.45,29.91A139.87,139.87,0,0,0,130,739.91c2.48,7.71,10.41,12.69,18.45,10.48,7.58-2.08,13-10.71,10.48-18.45Z"/><path class="cls-1" d="M298.37,765.83c10.82-10.74,18.72-23.43,20.4-38.77,1.11-10.08-1.3-20.27-4.84-29.66-1.56-4.13-3.31-8.18-4.84-12.32-.61-1.64-1.19-3.29-1.69-5-.29-1-.57-2-.8-3-.32-1.33-2-4.84-.33-.89-1.07-2.6-.23-7.3,0-10a86.58,86.58,0,0,1,1.07-8.7c1.22-7.9,2.7-15.9,2.7-23.92,0-16.18-6.45-33-13.91-47.14a43.6,43.6,0,0,0-35.93-23.33c-7.43-.48-13.18,1.92-20,4.12l.88-.42q-3.57.85,1.64.42c-.16.25-4.79-1.24-5.22-1.34a39.54,39.54,0,0,0-12.59-.85c-15.28,1.59-28.36,11.08-36.37,24-6.25,10.06-9.37,22.63-12.16,34-2.93,12-5.71,24.66-5.68,37,0,7.84,6.89,15.36,15,15s15-6.59,15-15c0-1.78.08-3.55.22-5.33.07-.92.18-1.84.26-2.76.34-4-.57,3.31.09-.81.78-4.91,1.67-9.79,2.75-14.64A199.18,199.18,0,0,1,211.6,610c.3-.82.66-1.62.94-2.44.67-2-1.79,3.13-.22.59,1.31-2.13,2.27-4.42,3.82-6.41-1.67,2.14,1.56-1.53,1.57-1.54.7-.7,1.44-1.39,2.2-2-2,1.74,1.68-1.07,1.78-1.13s4.19-2,1.66-1a26,26,0,0,1,4.14-1.18c-2.5.52-.38,0,.27,0,.43,0,4.74.68,1.77,0,1.47.32,2.89.81,4.35,1.13,4.59,1,9.19,1.44,13.8.21.94-.26,1.83-.6,2.74-.95q5.81-2.47,2.7-1.12a18.15,18.15,0,0,1,2-.66c.78-.22,3.71-.55.84-.33a26.77,26.77,0,0,1,4.2,0c-3.73-.29,5,1.82,1.93.47.87.38,1.65.92,2.51,1.31,3.2,1.46-1-1.47,1.5,1-.26-.25,2.81,3.05,1.75,1.71-.55-.75-.32-.39.69,1.09.59.94,1.14,1.91,1.65,2.9,4.57,8.69,9.79,21.44,9.81,32,0,12.71-4.26,25.38-3.95,39,.21,9.06,2.75,17.22,6.07,25.54,1.66,4.16,3.38,8.31,4.74,12.58a66.72,66.72,0,0,1,1.76,6.56c.15.74.27,1.49.41,2.23-.8-4.11,0,.77,0,1.71,0,.77,0,1.55,0,2.32s-.08,1.57-.15,2.35c.3-2,.3-2.14,0-.4-.21.8-.35,1.62-.56,2.42-.14.49-1.58,4.55-1,3.16.85-2-1.16,2.18-1.06,2a50.24,50.24,0,0,1-2.81,4.53,81.06,81.06,0,0,1-6.33,7,15,15,0,1,0,21.21,21.21Z"/><path class="cls-1" d="M154.92,691.06c3.32-18.76,1.11-37.34-1.19-56.08-1.11-9-2.24-18-2.68-27.08-.2-4.24-.26-8.49-.05-12.74.05-.95.11-1.91.19-2.87,0-.41.31-3.37.11-1.51-.27,2.44.56-3.23.44-2.57.28-1.51.61-3,.94-4.52,2.51-11.34,4.42-22.35,4.21-34,0-2.9-.29-28.86,1.41-28.43.42.1-2.4,2.62-2.48,2.08,0-.31,7.19-2.06,7.44-2.12q8.12-2.06,16.38-3.35a171,171,0,0,1,30.27-1.55c1.24,0,2.47.09,3.71.16.43,0,4.66.32,3.3.15l-.4-.09q3,.93.24-.49c-2-2.12-1.7-1.52-.76.45,1.09,2.26-.63-1.68.41,1,.54,1.42,1.07,2.85,1.56,4.29,1,2.87,1.89,5.78,2.68,8.71a115.74,115.74,0,0,1,4.14,33.91c-.1,7.85,7,15.36,15,15,8.22-.37,14.89-6.59,15-15a154.76,154.76,0,0,0-4.3-38.35c-2.68-11-6.12-25.29-15-33-10.17-8.87-27.8-7.27-40.47-6.66A205,205,0,0,0,158,491.6c-5.82,1.38-12,2.81-17.16,6-6.49,4-10.33,10.72-12.08,18-3,12.47-1.8,25.08-1.82,37.74,0,11.24-3.53,21.66-5.11,33.44-1.36,10.15-1,20.32-.08,30.5,1.09,11.84,2.88,23.6,4,35.43.53,5.44.93,10.9,1,16.37,0,2.73,0,5.45-.15,8.17-.06,1-.17,1.92-.22,2.88-.2,1.81-.19,1.89,0,.22-.13.91-.29,1.82-.46,2.73-1.36,7.7,2.08,16.54,10.48,18.45,7.31,1.67,17-2.21,18.45-10.48Z"/><path class="cls-1" d="M234.12,523.64a83.12,83.12,0,0,1,29.81-1.49,70.15,70.15,0,0,1,11,2.81c1,.32,1.84.81.41.13,1.07.51,2.12,1,3.15,1.63.81.47,1.6,1,2.38,1.48,1.85,1.24-2-2.19.75.66.64.65,1.29,1.28,1.91,1.95-1-1.11-.46-.81.09.25.16.31,1.56,3.33,1.11,2-.39-1.1.36,1.72.43,2a17.9,17.9,0,0,0,.4,2c-.12-1,.19,2.93.19,2.92q.25,3.74.42,7.47c.25,5.61.37,11.23.29,16.84,0,1,0,2.08-.08,3.11,0,.87-.29,2.25-.06.61-.28,2-.9,1.06.22.08,1.72-1.49,1.39-2.07,5-2.28-7.82.45-15.38,6.57-15,15,.34,7.73,6.61,15.49,15,15,9.17-.54,16.9-5.12,21.26-13.33,3.87-7.29,3.77-15.78,3.7-23.8-.12-14.33.69-31.62-7.69-44-17.35-25.58-55.62-26.3-82.63-20.06-7.9,1.83-12.56,10.88-10.48,18.46,2.23,8.09,10.53,12.3,18.45,10.47Z"/><path class="cls-1" d="M185.88,514.06c9.92-10.32,10-27,10-40.4,0-5.51-.28-11-.34-16.54a44.06,44.06,0,0,1,4.7-21.05,20.77,20.77,0,0,0,1.62-2.87c.08.54-5.71,4.69-3.12,2.18-.14.14-3.57.09.51,0l2.48,0,16.3-.16c9.34-.09,18.69-.36,28-.16,3.74.08,7.45.33,11.18.66,2.52.22-2.07-.35.42,0,1,.15,1.93.31,2.9.49,2.13.41,4.25.9,6.34,1.52.91.27,1.8.59,2.71.88.12,0,2.28.89.84.28s1.07.54,1.4.72c.83.43,1.64.88,2.44,1.37.31.19,2.74,1.77,1.37.8s.59.49.69.57c.7.65,1.4,1.28,2.06,2,.14.15,2.61,3.39,1.51,1.72,3,4.49,3.25,5.42,4.57,10.67.51,2,.93,4.14,1.24,6.23-.32-2.15,0,.49.06.78.11,1.33.23,2.65.32,4a227.72,227.72,0,0,1-.68,33.85c-.68,7.84,7.38,15.34,15,15,8.71-.39,14.27-6.6,15-15,1.85-21.25,2.74-44.72-6.28-64.55s-29.1-28.57-49.7-31.06c-9.3-1.12-18.64-1-28-.88-10.95.11-22.05-.31-33,.37-6.86.43-13.19,2.28-18.25,7.14-4.6,4.41-7.26,10.84-9.59,16.62a75.18,75.18,0,0,0-5.08,29.53c.16,7.49.48,15,.18,22.47-.08,1.84-.19,3.69-.35,5.53-.09,1-.19,2-.31,2.95.22-1.81.35-2-.07-.11a49.46,49.46,0,0,0-1.27,4.85c-.22,1.88,1.75-3.2.31-.83s2.41-2.58.6-.7a15.27,15.27,0,0,0,0,21.22c5.65,5.65,15.58,5.86,21.21,0Z"/><path class="cls-1" d="M213.73,427.89c8.07-11.74,9.43-27.21,10.92-40.94.39-3.61.74-7.23,1.12-10.84l.45-4,.33-2.64q-.37,2.71,0,.1c.56-3.27,1.09-6.52,1.92-9.73.38-1.48.81-2.94,1.31-4.39.24-.69.5-1.37.77-2-.77,1.78-.92,2.18-.44,1.18.84-1,1.27-2.5,2-3.54-.79.93-.58.74.64-.55a4.09,4.09,0,0,1-3.37,1.67c.24.41,6.52.08,7.17.09,2.61.08,5.23.17,7.84.27q14.7.56,29.36,1.63c19.57,1.43,39.24,3.54,58.37,6.35L321.69,342,312.2,397.1c-1.44,8.38-2.4,17-4.5,25.27-.32,1.25-.73,2.46-1.11,3.69q-.93,2.44,0-.06c-.37.74-.77,1.45-1.2,2.15,1.37-2.6-.51,0-.61.49.34-1.85,6.51-1.92,3.54-2-7.85-.23-15.36,7.07-15,15a15.3,15.3,0,0,0,15,15c10.31.31,19.12-6.09,23.88-14.94,4.51-8.37,5.62-17.57,7.21-26.78L350.62,350c1.24-7.21-1.86-17.19-10.48-18.45a886.78,886.78,0,0,0-103.54-9.33c-9.51-.27-18.38.51-25.55,7.57-5,4.93-8.17,11.61-10.37,18.18-3.8,11.34-4.46,23.75-5.68,35.57-.34,3.36-.69,6.72-1.14,10.07.4-2.93-.16.85-.32,1.84-.25,1.46-.52,2.91-.82,4.35a65,65,0,0,1-2.18,8c-.25.7-.51,1.39-.78,2.09.37-.95,1.13-2.2.18-.66-.72,1.16-1.34,2.35-2.11,3.48-4.59,6.68-1.25,16.65,5.38,20.53,7.43,4.34,15.92,1.31,20.52-5.39Z"/><path class="cls-1" d="M721.92,839.75c-7.72-10.39-15.13-20.83-21-32.4-1.87-3.72-3.66-9.93-4.84-15.16-1-4.5.07,1.58-.19-1.14-.12-1.23-.22-2.46-.26-3.69a50.34,50.34,0,0,1,.33-8.85c-.44,3.17.41-1.53.47-1.76.33-1.42.81-2.78,1.18-4.18.11-.41,1-2.7.06-.44a32.76,32.76,0,0,1,2-3.82,23.83,23.83,0,0,1,7.74-7.93c7.35-4.48,17-5.68,26.83-6,12.11-.34,24.22.47,36.34,0a203.48,203.48,0,0,0,41.69-5.67,138.88,138.88,0,0,0,18.84-6.31c5.72-2.37,10.5-5.23,15.75-4.74-3.46-.32.52.4,1.13.59-2.77-.9-.22,0,.54.42s3,2,.79.3a31.9,31.9,0,0,1,3,2.77c.83.83,1.6,1.71,2.37,2.59,1.76,2-1.87-2.81.76.91,1.67,2.39,3.24,4.83,4.7,7.35,7.06,12.17,13.23,24.34,16.59,37.65.36,1.43.68,2.87,1,4.31.16.79.3,1.58.43,2.38-.18-1.33-.16-1.06,0,.81a91.93,91.93,0,0,1,.06,9.68c-.21,4.55.72-2.06-.32,2.36-.37,1.55-.7,3.1-1.17,4.63-.95,3.13-1.53,4.18-3.94,7.83-4.47,6.76-1.34,16.59,5.38,20.52,7.33,4.29,16,1.4,20.52-5.38,18.74-28.35,6.68-62.25-7.19-89.64-6-11.93-12.8-23.71-23.6-32a39,39,0,0,0-21.09-8.1C838,707,830,710.54,822,713.93c-11.74,5-27.18,8.52-39.65,9.69-14.51,1.36-29,.67-43.5.73-14.22.07-28.42,1.57-41.49,7.47-13.51,6.1-23.14,17.67-28.19,31.41C656.9,796.69,676.76,829,696,854.89c4.82,6.49,13,9.79,20.52,5.38,6.41-3.75,10.24-14,5.39-20.52Z"/><path class="cls-1" d="M837.54,728.32q.72-13,.91-26c.13-9,.52-18.17-.8-27.07-2.45-16.54-17.87-25.58-33.2-27.72-18.76-2.62-37.42-.59-56.06,2.06-8.64,1.22-17.52,1.94-25.46,5.83-8.13,4-13.43,11.93-17.82,19.55-9.93,17.22-15.39,36.25-17.15,56-.69,7.84,7.4,15.34,15,15,8.73-.39,14.26-6.6,15-15a103.77,103.77,0,0,1,14.86-43.87c.62-1,2.51-3.8,2.63-4a3.26,3.26,0,0,1,1.89-1.44c-1.49.56,3.5-.76,4.16-.88,1.72-.33,3.45-.56,5.17-.83,8.88-1.35,17.16-2.55,26.15-3.22,4.87-.37,9.75-.57,14.63-.52q2.92,0,5.85.18c1.3.07,2.59.16,3.89.27,2.39.26,2.59.25.62,0A37.09,37.09,0,0,1,807,679c-2.86-1.24.52.52,1.1.87q-1.95-1.65-.06,0,1.71,1.88,0-.07c.78,1.41.81,1.5.1.25.37,1.68.46,2.06.25,1.14s-.19-.54,0,1.19c0,1.17.05,2.35.06,3.52.07,4.5.07,9,0,13.49q-.13,14.44-1,28.87c-.44,7.85,7.21,15.35,15,15,8.49-.38,14.53-6.59,15-15Z"/><path class="cls-1" d="M884,720a201,201,0,0,0,15.55-28.53c4.51-10.22,9.75-21.46,11.25-32.63,2-15.15-10.77-23.15-20.89-31.7L862.57,604l-27.38-23.13C825.06,572.33,814,560.36,799.28,564c-18.42,4.51-26.16,27.79-32.52,43.39-3.6,8.84-6.91,17.8-10.21,26.75-1.54,4.17-3.08,8.34-4.65,12.5q-1.15,3-2.35,6.09c-.27.67-.55,1.35-.81,2-1.45,3.66.9-2.05-.23.57-3.2,7.44-2.21,16.09,5.38,20.53,6.33,3.69,17.31,2.1,20.53-5.39,5.7-13.27,10.45-26.91,15.55-40.43q1.9-5.06,3.88-10.09.92-2.29,1.84-4.59l1-2.56c-1.2,2.9.49-1.12.6-1.36a119.07,119.07,0,0,1,8-15.85c.45-.73.92-1.44,1.41-2.15,1.34-1.92-1.37,1.35.28-.29,2-2,1.35-.82-.48-.12l-3.48.1-.6-.28c-.4.45,2.25,1.32,1.07.52a79.08,79.08,0,0,1,6.59,5.56l23.58,19.92,24.34,20.56,12.17,10.28c3.7,3.13,7.56,7.62,11.77,10,1.81,1,1,3.31-.51-1.92-.65-2.31.23-4.61-.87-.86-.74,2.53-1.55,5-2.4,7.53-1.5,4.39-3.46,9.55-4.92,12.78a209.37,209.37,0,0,1-15.19,27.72c-4.43,6.78-1.37,16.57,5.38,20.52,7.3,4.27,16.08,1.42,20.52-5.38Z"/><path class="cls-1" d="M731.73,652.26a106.25,106.25,0,0,0-14.61-15.15c-5.3-4.45-11.72-10.28-18.23-12.94q-4.74-3,3.06,7.53c0-.73.06-1.45.12-2.17.13-2.31.3-4.62.45-6.93l.78-11.87L704.86,587l1.56-23.75c.13-2,.23-4,.39-5.93.1-1.7.14-2,.11-1.06.05,2.11-1.17,3.76-3.64,4.94q-2.34.8.24.05l-1.19.09a50,50,0,0,1,5.34-.5l49.42-4.47-15-15c.54,13.69,7.37,24.52,16.18,34.53,8.12,9.23,16.69,18.09,25,27.1,5.51,5.94,15.64,5.58,21.22,0,5.92-5.92,5.52-15.25,0-21.21Q793.64,570,782.76,558.28c-1.47-1.59-3-3.2-4.36-4.85a20.51,20.51,0,0,1-2.66-3.45c-.57-.91-1.18-1.8-1.71-2.73,0-.06-1.63-3.4-1.3-2.5a11.85,11.85,0,0,1-.64-3.4c-.3-7.54-6.65-15.75-15-15-18.7,1.7-37.54,2.86-56.17,5.16-13.15,1.62-22.24,9-23.8,22.72-1,8.88-1.28,17.89-1.87,26.81l-1.82,27.71-1,14.84c-.32,4.82-1,9.65.45,14.37,3.07,9.85,13.9,13.23,21.41,19,1.08.83,5.08,4.35,7.2,6.43a107,107,0,0,1,9,10c5,6.35,16,5.27,21.22,0,6.27-6.27,5.06-14.85,0-21.21Z"/><path class="cls-1" d="M830.46,583.78c-2.52-36.26,2-72.74-1.84-108.95-1.11-10.49-1.45-23.41-12-29.16-5.55-3.05-12.13-2.69-18.26-2.9l-17-.59L747.54,441c-11.29-.39-25.6-3.43-34.11,5.83-5.21,5.67-5.09,13.06-5.43,20.27l-.88,18.58-1.8,38.14c-.37,7.85,7.16,15.35,15,15a15.33,15.33,0,0,0,15-15l1.57-33.25.74-15.65.41-8.8c.06-1.28.26-2.63.19-3.91-.15-2.62-.9,2.32.27-.79l-3.86,6.62q-10.32,2.51-5.06,2.33l4,.14,8,.28,14,.48,27.93,1,16,.55c1.4.05,4.65.63,6,.21-4.47,1.4-8.8-11.48-7.5-3.7.15.95.3,1.9.43,2.86-.2-1.56-.19-1.42,0,.41.16,1.51.34,3,.48,4.52.37,3.9.63,7.81.83,11.72,1.58,31.63-1.42,63.35.78,95,.54,7.81,6.51,15.38,15,15,7.66-.34,15.58-6.62,15-15Z"/><path class="cls-1" d="M716.31,481.22l-48.12-30.61,6.9,16.94a222.35,222.35,0,0,0,10.76-43.66c1.14-8.15,2-16.32,2.36-24.54.15-3.75.2-7.51.16-11.26,0-1.72-.11-3.45-.12-5.17,0-.72,0-1.43,0-2.14.05-1.13.05-.95,0,.53,0,0-3.59,5.47-3.84,4.41,0-.11,4.55-1.43,4.47-1.4l11.42-3.43,22.86-6.84q22.86-6.82,45.74-13.6L750.48,350l29.81,98.26a15.28,15.28,0,0,0,18.45,10.47c7.68-2.11,12.84-10.67,10.48-18.45L779.41,342c-2.32-7.64-10.5-12.84-18.46-10.48q-24.78,7.35-49.55,14.74l-24.76,7.41c-7.93,2.38-16.4,4.26-22.22,10.59-6.68,7.25-6.07,16.6-6,25.7a215.47,215.47,0,0,1-1.3,24.36c-1.61,14.5-5.73,30.72-10.92,45.26-2.28,6.37,1.57,13.55,6.89,16.94l48.12,30.6c6.84,4.35,16.54,1.42,20.52-5.38,4.23-7.23,1.47-16.16-5.38-20.52Z"/><path class="cls-1" d="M327,414.28h61.33c10.71,0,24.08,1.87,33.79-3.23,15-7.88,15.22-27.72,18-42.36l9.22-48.94c.78-4.13,1.89-8.41,1.67-12.59-.33-6.4-3.74-11.16-8.88-14.68-6.24-4.27-13.19-7.78-19.88-11.27a354.52,354.52,0,0,0-84.78-31.34c-9.35-2.13-19.21-3.88-28.1.89s-12.11,13.75-15.62,22.49q-10.22,25.39-20.42,50.8c-2.93,7.3,3.19,16.79,10.48,18.45,8.68,2,15.31-2.66,18.45-10.48l19-47.17c.73-1.81,1.47-3.62,2.19-5.44.87-2.14,1-2.42.31-.83a20.76,20.76,0,0,1,.94-1.89c.56-.89.42-.84-.41.17q2.75-2.55-2,.79l1.38-.35c-1.58.29-1.45.39.39.32-2.43-1.06,1.25.25,1.94.39,2.06.43,4.12.91,6.17,1.4q5.72,1.35,11.38,2.9A322,322,0,0,1,385.88,297q10.75,4.71,21.19,10.11,4.81,2.5,9.54,5.17,2.36,1.32,4.7,2.69c1,.61,2.08,1.22,3.11,1.84q4,2.65-1.39-2.08l-2-7.57c.68-1.9.72-1.67.14.7l-.73,3.91-1.48,7.83-2.59,13.71-5.53,29.36-2.59,13.7c-.45,2.44-.86,4.89-1.38,7.31-.14.72-.31,1.44-.51,2.14-.33,1-.23,1,.3-.16-1.34,2.13-.79,1.75,1.64-1.17,1.39-.52,1.22-.55-.52-.06,1.51-.26,1.34-.31-.5-.17l-2.28,0H327c-7.85,0-15.37,6.9-15,15s6.59,15,15,15Z"/><path class="cls-1" d="M660.93,405.12l-29.48-11.29-12.9-4.93-7.37-2.82c-1.45-.56-5.92-3.17-7.37-2.82,2.77-.67,5.05,8.8,3.71,3.1-.5-2.14-.88-4.31-1.32-6.46l-3.14-15.44-5.89-29c-1.9-9.35-4.8-19.07-5.79-28.56.15,1.4.19,1.18.1-.67a3.48,3.48,0,0,1-.2,1.89q-1.38,1.41.43-.61c.68-.76,1.38-1.51,2.08-2.25,2.73-2.95,5.41-5.94,8-9A200.54,200.54,0,0,0,631,249.34l-23.56,3a116.24,116.24,0,0,0,52.23,33.42c5.46,1.69,11.16,3.2,16.88,2.43,7.86-1.05,13-6.29,17-12.79,6.21-10.21,12.3-20.49,18.46-30.73l-27.42-3.59A805.84,805.84,0,0,0,717,344.27c3,7.54,10.06,12.78,18.45,10.48,7.19-2,13.44-10.87,10.48-18.46a805.7,805.7,0,0,1-32.53-103.15c-3.11-12.79-20.95-14.36-27.42-3.58l-15,24.91c-1,1.66-2,3.33-3,5-.59,1-1.19,2-1.81,3q3.22-4.16,7.6-3.84c-1-.76-3.42-.87-4.69-1.24-2.08-.6-4.13-1.28-6.15-2a95.91,95.91,0,0,1-18-9.47,52,52,0,0,1-7.22-5.54,104.08,104.08,0,0,1-9.16-9.15c-5.91-6.64-19.75-5.62-23.55,3a184.48,184.48,0,0,1-22.47,38.33c-3.75,4.81-9.3,10.34-13.55,15.59-7.11,8.77-8.39,17.41-6.28,28.33,3.31,17.08,6.94,34.11,10.4,51.16,1.7,8.36,3.37,16.73,5.1,25.09,2.32,11.2,9.24,16.27,19.43,20.19C616.09,420,634.53,427,653,434.05c7.34,2.81,16.77-3.11,18.45-10.48,2-8.57-2.61-15.44-10.48-18.45Z"/><path class="cls-1" d="M388.58,266.6l12.67-35.38q3-8.37,6-16.75c.47-1.3.9-2.61,1.42-3.89.86-2.15-1.83,2.25.57-1s.15-.33.18-.34c-1.26.26-2.41,1-.26.34,11.21-3.26,23.3-4.7,34.82-6.5s22.56-3.16,34.37-4.32q8.66-.84,17.33-1.46c1.55-.11,3.11-.25,4.67-.31l.8,0c2.67.13,2.18-.14-1.46-.83-.74.21-1.47-2.6.33.68-1.06-1.93,1.81,2.6,1.82,2.62l10.4,14.4c3.54,4.9,8,9.81,10.71,15.23-.08-.15-.62-.92-.59-1.22.23-2.39-.62,3.72-.51,3.12l-1.44,7.76-3.6,19.42c-1.09,5.82-2.12,11.65-3.25,17.47-.25,1.3-.48,2.6-.81,3.88-.16.64-1.5,3.33-.39,1.56.38-.6,1.85-1.13-.69.66,1.44-1-2.46,1.4-2.36,1.34-21.53,12.73-44.36,20.78-69.37,25.4-8,1.47-12.49,11.12-10.48,18.45,2.3,8.38,10.46,12,18.45,10.48a238.17,238.17,0,0,0,75.77-28c6.25-3.62,12-8,15.27-14.61,3.52-7,4.29-15.22,5.7-22.85l3.61-19.42c1.46-7.9,4.12-16.63,4.1-24.68,0-7.47-3-13.62-7.28-19.54q-6.93-9.61-13.87-19.21c-3.79-5.26-7.29-11.31-12.12-15.66-7.39-6.65-16.06-6.67-25.34-6a702.57,702.57,0,0,0-86.29,11.79c-7.58,1.53-14.83,3.91-20.2,9.84-5.78,6.38-8.1,15.09-10.93,23l-16.67,46.54c-2.65,7.4,3,16.75,10.48,18.46,8.42,1.91,15.62-2.56,18.45-10.48Z"/><path class="cls-1" d="M520.08,317.64A74,74,0,0,0,563,335.71c7.84.69,15.34-7.4,15-15-.39-8.72-6.6-14.26-15-15l-1.61-.15c1,.15,1,.14,0,0s-2.13-.41-3.18-.67a68.64,68.64,0,0,1-6.67-2.06c-.68-.29-3.89-2-5.44-2.92-.92-.57-1.82-1.17-2.72-1.77-3.88-2.64,1.49,1.39-2.06-1.67-6.13-5.29-15.19-6-21.22,0-5.41,5.41-6.16,15.89,0,21.21Z"/><path class="cls-1" d="M526.21,194.54a52.09,52.09,0,0,1,10.48-6.24c-2.21.95,3-1,3.47-1.11,1.93-.58,3.89-1.06,5.87-1.47q1.49-.3,3-.54c-1.47.17-1.27.15.58-.06,2.06-.18,4.12-.35,6.19-.42,3.69-.13,7.38,0,11.06.17,2.13.13,4.26.31,6.38.52.56.06,6.15.77,4,.46,4.23.6,8.44,1.34,12.64,2.13,8.93,1.69,17.83,3.55,26.74,5.34,17.18,3.45,34.52,6.59,48.6,15.49a48.72,48.72,0,0,1,13.13,12.77c4.07,6.38,5.37,10.81,4.95,18.08-.45,7.84,7.22,15.35,15,15,8.52-.38,14.52-6.6,15-15,1-16.53-6.46-32.19-17.5-44.13s-26.23-19.39-41.64-24.18c-15.71-4.88-32.15-7.48-48.25-10.71-14.92-3-30.12-5.85-45.38-6-17.31-.16-35.34,3.5-49.46,14-6.49,4.82-9.79,13-5.38,20.52,3.75,6.4,14,10.24,20.53,5.38Z"/><path class="cls-1" d="M233.83,332.77,220.1,286.9c-2.22-7.41-4.61-14.79-6.56-22.28-.57-2.19-.7-1.88-.09-4s2.94-5.71,4.85-8.81q12.49-20.41,25-40.8c1.94-3.16,3.82-6.36,5.84-9.47-.07.11,2.93-4,1.34-2.06a21.56,21.56,0,0,1,2.13-2.25c-2,1.77,1.91-1.64.05-.19l1.51-.45c-1.42,0-1.2,0,.68-.1a34.07,34.07,0,0,1,4.84.19c-1.75-.2,3.67.72,4.31.85,6.66,1.31,13.61,2.88,20.44,2.48a58.53,58.53,0,0,0,23.3-6.55c11.34-5.76,20.87-15.07,29.44-24.31,5.19-5.6,10.28-11.27,15.42-16.91,2.55-2.8,5.05-5.68,7.68-8.42-.17.19,2.15-2.18,2.18-2.15.41.48-3,.94-3,.9.39-.68,20,7.19,22,7.89l22.36,8.14,100.6,36.62c7.39,2.69,16.76-3,18.46-10.48,1.92-8.46-2.57-15.57-10.48-18.45l-95-34.59C401.61,126,385.9,119.9,370,114.47c-10-3.41-19.49-1.68-27.56,5-6,5-11.07,11.59-16.35,17.38-5,5.44-9.83,11-15,16.22-2.24,2.26-4.53,4.47-6.92,6.58a36.2,36.2,0,0,1-6.27,4.82c-1.49,1-3,1.88-4.6,2.72-.67.35-1.35.69-2,1,.29-.13,1.75-.66.13-.06a40.41,40.41,0,0,1-4.26,1.34c-.73.18-1.45.34-2.18.49,1.6-.33.54,0-.49,0-1.58.06-3.14,0-4.72,0a7.94,7.94,0,0,1-2.71-.38c-3.62-.7-7.22-1.49-10.87-2-9.45-1.45-18.54-1.45-27.26,3-7.22,3.71-12.27,10.44-16.49,17.17-8.93,14.23-17.59,28.65-26.38,43-4.81,7.85-10.74,16-12.19,25.25-1.61,10.26,1.56,19.65,4.46,29.35l16.59,55.42a15.29,15.29,0,0,0,18.45,10.48c7.7-2.12,12.81-10.66,10.48-18.45Z"/><path class="cls-1" d="M382,623.19a1659.81,1659.81,0,0,0,219.79-19.63c4.81-.75,9.46-5.88,10.48-10.48,3.74-16.87-8.89-26.58-22-33.85l-38-21.07a15.28,15.28,0,0,0-20.52,5.38c-4,6.89-1.73,16.58,5.38,20.52l29.36,16.29c4.6,2.55,9.25,5,13.81,7.66.8.46,1.58.94,2.37,1.42,3.43,2.07-.67-.86.87.68.46.46,1.51,2.24,1,1-1-2.5-2.22-1.54-1.22-6l10.48-10.47A1600.48,1600.48,0,0,1,382,593.19c-7.84.17-15.36,6.78-15,15,.36,8,6.6,15.18,15,15Z"/><path class="cls-1" d="M584.18,579.61a417.63,417.63,0,0,0-39.78,38.24c-5.46,6-5.91,15.3,0,21.21,5.54,5.54,15.73,6,21.21,0a419.92,419.92,0,0,1,39.78-38.23c6.2-5.23,5.38-15.84,0-21.22-6.14-6.14-15-5.23-21.21,0Z"/></svg>