<svg id="Layer_1" data-name="Layer 1" xmlns="http://www.w3.org/2000/svg" viewBox="0 0 500 500"><defs><style>.cls-1{fill:#231f20;}</style></defs><title>LOGO</title><path class="cls-1" d="M68.79,405.82,230.28,244.34l43-43c11.11-11.11,11.94-31.47,0-42.43s-30.57-11.86-42.43,0L187.56,202.2c-11.11,11.11-11.94,31.47,0,42.43s30.57,11.86,42.43,0l45.19-45.2c11.11-11.11,11.94-31.46,0-42.42s-30.57-11.86-42.43,0L187.56,202.2,230,244.63l43.29-43.29-42.43-42.43L69.36,320.4l-43,43c-11.11,11.12-11.94,31.47,0,42.43s30.57,11.86,42.42,0Z"/><path class="cls-1" d="M224,178.22v207c0,15.69,13.8,30.73,30,30s30-13.18,30-30v-207c0-15.69-13.8-30.72-30-30s-30,13.18-30,30Z"/><path class="cls-1" d="M275.18,406.4,430,251.58,473.63,208l-42.42-42.42L392,204.71c-11.11,11.12-11.94,31.47,0,42.43s30.57,11.86,42.43,0L473.63,208c11.11-11.11,11.94-31.46,0-42.42s-30.57-11.86-42.42,0L276.39,320.35,232.75,364c-11.11,11.11-11.94,31.46,0,42.42s30.57,11.86,42.43,0Z"/><path class="cls-1" d="M422.13,187V385.19c0,15.69,13.8,30.73,30,30s30-13.18,30-30V187c0-15.69-13.8-30.73-30-30s-30,13.18-30,30Z"/><path class="cls-1" d="M117.72,344.2H232.57c15.69,0,30.72-13.79,30-30s-13.19-30-30-30H117.72c-15.69,0-30.73,13.8-30,30s13.18,30,30,30Z"/><path class="cls-1" d="M452.42,144.81c15.69,0,30.73-13.8,30-30s-13.18-30-30-30c-15.69,0-30.73,13.8-30,30s13.18,30,30,30Z"/></svg>